
<svg xmlns="http://www.w3.org/2000/svg" xmlns:xlink="http://www.w3.org/1999/xlink" version="1.1" x="0px" y="0px" viewBox="0 0 100 100" style="enable-background:new 0 0 100 100;" fill="#0D47A1" fill-opacity="0.16" xml:space="preserve"><style type="text/css">
	.st0{display:none;}
</style><path d="M75,26.05c-0.01,0-0.02,0-0.03,0C74.99,25.7,75,25.35,75,25C75,11.19,63.81,0,50,0S25,11.19,25,25  c0,0.35,0.01,0.7,0.03,1.05c-0.01,0-0.02,0-0.03,0c-13.81,0-25,11.19-25,25s11.19,25,25,25c0.01,0,0.02,0,0.03,0  C25.58,89.37,36.55,100,50,100s24.42-10.63,24.97-23.95c0.01,0,0.02,0,0.03,0c13.81,0,25-11.19,25-25S88.81,26.05,75,26.05z   M73.84,70.05c-1.74,0-3.47-0.24-5.17-0.72c0.36,1.48,0.55,2.98,0.55,4.49c0,10.54-8.57,19.11-19.11,19.11  C39.58,92.93,31,84.36,31,73.82c0-1.52,0.19-3.04,0.56-4.54c-1.75,0.51-3.54,0.77-5.35,0.77c-10.54,0-19.11-8.57-19.11-19.11  s8.57-19.11,19.11-19.11c2.05,0,4.05,0.33,5.99,0.97C31.4,30.68,31,28.46,31,26.18c0-10.54,8.57-19.11,19.11-19.11  c10.54,0,19.11,8.57,19.11,19.11c0,2.25-0.39,4.45-1.17,6.55c1.87-0.6,3.81-0.91,5.79-0.91c10.54,0,19.11,8.57,19.11,19.11  S84.38,70.05,73.84,70.05z"/><path d="M49.97,53.23c-1.78,0-3.23-1.45-3.23-3.23c0-1.78,1.45-3.23,3.23-3.23S53.2,48.22,53.2,50  C53.2,51.78,51.75,53.23,49.97,53.23z"/><path d="M73.84,33.61c-2.44,0-4.83,0.51-7.08,1.53l-2.28,1.02l1.12-2.23c1.22-2.44,1.84-5.04,1.84-7.74  c0-9.56-7.77-17.33-17.33-17.33s-17.33,7.78-17.33,17.33c0,2.74,0.64,5.38,1.89,7.85l1.17,2.3l-2.34-1.09  c-2.32-1.08-4.78-1.63-7.3-1.63c-9.56,0-17.33,7.78-17.33,17.33s7.78,17.33,17.33,17.33c2.17,0,4.32-0.41,6.37-1.22l1.8-0.71  l-0.63,1.83c-0.64,1.85-0.96,3.75-0.96,5.65c0,9.56,7.78,17.33,17.33,17.33s17.33-7.78,17.33-17.33c0-1.88-0.32-3.76-0.94-5.58  l-0.61-1.79l1.77,0.68c2.01,0.77,4.08,1.15,6.18,1.15c9.56,0,17.33-7.78,17.33-17.33S83.4,33.61,73.84,33.61z M81.43,50.25  c-1.25,1.87-4.8,2.43-6.46,2.59c0.56,0.81,0.8,1.63,0.7,2.45c-0.19,1.65-1.66,2.65-1.72,2.69l-0.57,0.38l-0.12-0.67  c-0.04-0.23-1.1-5.74-9.13-5.74c-3.9,0-6.03,0.79-7.18,1.59c0.83,0.43,3.27,1.94,1.62,4.02c0,0,1.61,0.75,1.19,2.18  c-1.43,0.42-2.18-1.19-2.18-1.19c-2.09,1.67-3.61-0.83-4.03-1.63c-0.83,1.14-1.65,3.27-1.65,7.27c0,8.03,5.5,9.08,5.74,9.12  l0.67,0.12l-0.38,0.57c-0.04,0.06-1.04,1.53-2.69,1.72c-0.82,0.09-1.64-0.14-2.45-0.71c-0.16,1.66-0.72,5.21-2.59,6.46l-0.25,0.16  l-0.25-0.16c-1.87-1.25-2.43-4.8-2.59-6.46c-0.81,0.56-1.63,0.8-2.45,0.71c-1.65-0.19-2.65-1.66-2.69-1.72l-0.38-0.57l0.67-0.12  c0.23-0.04,5.74-1.1,5.74-9.12c0-4-0.83-6.13-1.65-7.27c-0.42,0.81-1.93,3.3-4.03,1.64c0,0-0.75,1.61-2.18,1.19  c-0.42-1.43,1.19-2.18,1.19-2.18c-1.66-2.08,0.8-3.59,1.62-4.02c-1.16-0.81-3.28-1.59-7.18-1.59c-8.03,0-9.08,5.5-9.13,5.74  l-0.12,0.67l-0.57-0.38c-0.06-0.04-1.53-1.04-1.72-2.69c-0.09-0.82,0.14-1.65,0.7-2.45c-1.66-0.16-5.21-0.72-6.46-2.59L18.35,50  l0.16-0.25c1.25-1.87,4.8-2.43,6.46-2.59c-0.56-0.81-0.8-1.63-0.7-2.45c0.19-1.65,1.66-2.65,1.72-2.69l0.57-0.38l0.12,0.67  c0.04,0.23,1.1,5.74,9.13,5.74c3.87,0,5.99-0.78,7.15-1.58c-0.92-0.5-3.07-1.97-1.5-3.95c0,0-1.61-0.75-1.19-2.18  c1.43-0.42,2.18,1.19,2.18,1.19c2-1.59,3.47,0.6,3.96,1.51c0.82-1.15,1.62-3.28,1.62-7.23c0-8.03-5.5-9.08-5.74-9.12l-0.67-0.12  L42,26.02c0.04-0.06,1.04-1.53,2.69-1.72c0.82-0.09,1.64,0.14,2.45,0.71c0.16-1.66,0.72-5.21,2.59-6.46l0.25-0.16l0.25,0.16  c1.87,1.25,2.43,4.8,2.59,6.46c0.81-0.56,1.63-0.8,2.45-0.71c1.65,0.19,2.65,1.66,2.69,1.72l0.38,0.57l-0.67,0.12  c-0.23,0.04-5.74,1.1-5.74,9.12c0,4.13,0.88,6.26,1.73,7.37c0.4-0.79,1.92-3.33,4.04-1.65c0,0,0.75-1.61,2.18-1.19  c0.42,1.43-1.19,2.18-1.19,2.18c1.64,2.06-0.75,3.56-1.6,4.01c1.18,0.78,3.29,1.52,7.07,1.52c8.03,0,9.08-5.5,9.13-5.74l0.12-0.67  l0.57,0.38c0.06,0.04,1.53,1.04,1.72,2.69c0.09,0.82-0.14,1.64-0.7,2.45c1.66,0.16,5.21,0.72,6.46,2.59L81.59,50L81.43,50.25z"/><path d="M49.97,50c0.01,0,0.02,0,0.03,0C49.99,50,49.98,50,49.97,50C49.97,50,49.97,50,49.97,50z"/><path d="M50.03,50C50.03,50,50.03,50,50.03,50c-0.01,0-0.02,0-0.03,0C50.01,50,50.02,50,50.03,50z"/><path d="M33.13,0c0,0-4.5,4.05-11.36,3.11C18.4,2.65,16.05,1.27,14.53,0L33.13,0z"/><path d="M0.01,3.99L0.01,3.99l1.52,0.96C2.57,5.61,3.05,6.89,2.7,8.08l-0.6,2.06c-0.13,0.43,0.02,0.89,0.34,1.2  c3.34,3.24,4.32,8.35,4.32,8.35c1.49-2.29,1.22-6.17,1.22-6.17c1.36,3.92,10.94,5.39,10.94,5.39s-1.48-9.62-5.39-10.94  c0,0,3.88,0.28,6.17-1.22c0,0-5.11-0.98-8.35-4.32c-0.31-0.32-0.77-0.47-1.2-0.34L8.08,2.7C6.9,3.05,5.62,2.57,4.95,1.52L3.99,0L0,0  L0.01,3.99z"/><path d="M0.01,33.14c0,0,4.05-4.5,3.11-11.36C2.66,18.4,1.28,16.04,0,14.53L0.01,33.14z"/><path d="M100,33.13c0,0-4.05-4.5-3.11-11.36c0.46-3.38,1.84-5.73,3.12-7.25L100,33.13z"/><path d="M96.01,0.01L96.01,0.01l-0.96,1.52c-0.67,1.05-1.94,1.53-3.13,1.18l-2.06-0.6c-0.43-0.13-0.89,0.02-1.2,0.34  c-3.24,3.34-8.35,4.32-8.35,4.32c2.29,1.49,6.17,1.22,6.17,1.22c-3.92,1.36-5.39,10.94-5.39,10.94s9.62-1.48,10.94-5.39  c0,0-0.28,3.88,1.22,6.17c0,0,0.98-5.11,4.32-8.35c0.32-0.31,0.47-0.77,0.34-1.2l-0.6-2.06c-0.35-1.19,0.13-2.47,1.18-3.13L100,3.99  L100,0L96.01,0.01z"/><path d="M66.86,0.01c0,0,4.5,4.05,11.36,3.11C81.6,2.66,83.96,1.28,85.47,0L66.86,0.01z"/><path d="M33.13,100c0,0-4.5-4.05-11.36-3.11c-3.38,0.46-5.73,1.84-7.25,3.12L33.13,100z"/><path d="M0.01,96.01L0.01,96.01l1.52-0.96c1.05-0.67,1.53-1.94,1.18-3.13l-0.6-2.06c-0.13-0.43,0.02-0.89,0.34-1.2  c3.34-3.24,4.32-8.35,4.32-8.35c1.49,2.29,1.22,6.17,1.22,6.17c1.36-3.92,10.94-5.39,10.94-5.39s-1.48,9.62-5.39,10.94  c0,0,3.88-0.28,6.17,1.22c0,0-5.11,0.98-8.35,4.32c-0.31,0.32-0.77,0.47-1.2,0.34l-2.06-0.6c-1.19-0.35-2.47,0.13-3.13,1.18  L3.99,100L0,100L0.01,96.01z"/><path d="M0.01,66.86c0,0,4.05,4.5,3.11,11.36C2.66,81.6,1.28,83.96,0,85.47L0.01,66.86z"/><path d="M100,66.86c0,0-4.05,4.5-3.11,11.36c0.46,3.38,1.84,5.73,3.12,7.25L100,66.86z"/><path d="M96.01,99.99L96.01,99.99l-0.96-1.52c-0.67-1.05-1.94-1.53-3.13-1.18l-2.06,0.6c-0.43,0.13-0.89-0.02-1.2-0.34  c-3.24-3.34-8.35-4.32-8.35-4.32c2.29-1.49,6.17-1.22,6.17-1.22c-3.92-1.36-5.39-10.94-5.39-10.94s9.62,1.48,10.94,5.39  c0,0-0.28-3.88,1.22-6.17c0,0,0.98,5.11,4.32,8.35c0.32,0.31,0.47,0.77,0.34,1.2l-0.6,2.06c-0.35,1.19,0.13,2.47,1.18,3.13  l1.52,0.97l0,3.99L96.01,99.99z"/><path d="M66.86,99.99c0,0,4.5-4.05,11.36-3.11c3.38,0.46,5.74,1.84,7.25,3.12L66.86,99.99z"/></svg>
