<svg xmlns="http://www.w3.org/2000/svg" viewBox="0 0 7410 7380" preserveAspectRatio="xMidYMid meet">
  <rect width="7410" height="7380" fill="#f7fbff"/>
  <g fill="none" stroke="#1f4fa3" stroke-width="44" stroke-linejoin="round" stroke-linecap="round" opacity="0.42">
    <path d="M2718 4732 c-555 -554 -1008 -1014 -1008 -1021 0 -20 2017 -2034 2030 -2026 23 14 2015 2016 2015 2025 0 10 -2015 2030 -2025 2030 -3 0 -458 -454 -1012 -1008z m2325 -385 c345 -346 627 -632 627 -637 0 -6 -1562 -1573 -1883 -1889 l-55 -53 -971 970 -971 971 97 102 c54 56 121 122 148 148 28 25 129 127 227 226 97 99 268 271 380 381 111 111 403 401 647 644 l443 442 342 -338 c187 -186 623 -621 969 -967z"/>
    <path d="M2805 4640 c-511 -511 -927 -931 -925 -934 3 -3 421 -422 929 -931 l925 -926 930 931 931 930 -930 930 -930 930 -930 -930z m1840 -14 c498 -497 905 -909 905 -917 0 -11 -1718 -1734 -1798 -1803 l-22 -19 -400 399 c-829 825 -1415 1415 -1415 1424 0 12 1806 1820 1817 1820 4 0 415 -407 913 -904z"/>
    <path d="M3681 4814 c-43 -55 -14 -124 52 -124 49 0 72 31 68 93 -3 55 -85 76 -120 31z"/>
    <path d="M3285 4735 c-29 -28 -32 -61 -9 -93 33 -47 100 -45 123 4 17 38 14 53 -18 85 -36 35 -64 37 -96 4z"/>
    <path d="M4110 4747 c-59 -30 -64 -104 -9 -133 25 -12 36 -13 59 -4 47 19 64 81 33 118 -24 27 -53 34 -83 19z"/>
    <path d="M2940 4510 c-31 -31 -30 -72 3 -107 44 -48 117 -16 117 51 0 63 -77 99 -120 56z"/>
    <path d="M4429 4501 c-35 -35 -37 -70 -6 -99 51 -48 127 -12 127 61 0 30 -5 39 -30 52 -41 21 -58 19 -91 -14z"/>
    <path d="M2720 4177 c-35 -18 -40 -80 -9 -113 31 -34 81 -32 108 2 27 34 26 57 -1 88 -28 31 -65 40 -98 23z"/>
    <path d="M4656 4159 c-31 -25 -35 -66 -8 -100 41 -50 132 -11 132 56 0 61 -70 86 -124 44z"/>
    <path d="M2624 3754 c-46 -45 -11 -114 57 -114 29 0 42 6 58 26 12 15 21 34 21 44 0 10 -9 29 -21 44 -28 35 -80 36 -115 0z"/>
    <path d="M4732 3757 c-44 -47 -12 -117 52 -117 70 1 104 72 56 120 -28 28 -81 26 -108 -3z"/>
    <path d="M2706 3349 c-31 -37 -32 -49 -5 -83 28 -35 80 -36 114 -1 30 30 31 54 4 89 -30 38 -79 36 -113 -5z"/>
    <path d="M4652 3360 c-59 -55 0 -142 81 -119 52 14 64 73 22 114 -30 31 -73 32 -103 5z"/>
    <path d="M2942 3018 c-35 -38 -38 -73 -8 -102 30 -31 64 -33 100 -5 19 15 26 30 26 55 0 67 -73 99 -118 52z"/>
    <path d="M4425 3015 c-26 -25 -29 -35 -19 -73 7 -25 51 -52 84 -52 30 0 60 35 60 70 0 38 -39 80 -75 80 -14 0 -37 -11 -50 -25z"/>
    <path d="M3305 2808 c-32 -17 -45 -39 -45 -75 0 -65 62 -93 114 -52 64 50 2 166 -69 127z"/>
    <path d="M4080 2790 c-43 -43 -6 -130 55 -130 31 0 75 41 75 71 0 11 -9 34 -21 50 -25 36 -78 40 -109 9z"/>
    <path d="M3694 2722 c-37 -24 -40 -88 -7 -124 41 -46 131 3 119 65 -3 17 -14 39 -23 49 -16 18 -68 24 -89 10z"/>
  </g>
</svg>
